<svg width="16" height="16" viewBox="0 0 16 16" fill="none" xmlns="http://www.w3.org/2000/svg">
<path d="M6.1486 14.3336C5.09927 14.3417 4.15931 13.686 3.80467 12.6984C3.45002 11.7108 3.75812 10.6069 4.57295 9.94566C3.995 9.47789 3.65921 8.77413 3.65921 8.03061C3.65921 7.28708 3.995 6.58333 4.57295 6.11556C3.75786 5.45457 3.44957 4.3506 3.80429 3.36294C4.159 2.37527 5.09921 1.71969 6.1486 1.72823H9.9995C11.0489 1.71969 11.9891 2.37527 12.3438 3.36294C12.6985 4.3506 12.3902 5.45457 11.5751 6.11556C12.39 6.77678 12.6981 7.88067 12.3434 8.86829C11.9888 9.8559 11.0488 10.5116 9.9995 10.5034C9.51482 10.504 9.04054 10.3629 8.63498 10.0975V11.8623C8.62908 13.2306 7.5169 14.336 6.1486 14.3336ZM6.13474 10.5041C5.38822 10.5159 4.79146 11.1285 4.79929 11.8751C4.80712 12.6217 5.41659 13.2217 6.1632 13.2178C6.9098 13.2139 7.51302 12.6076 7.51312 11.861V10.5041H6.13411H6.13474ZM10.0001 6.67397C9.25162 6.6778 8.64757 7.28701 8.65011 8.03552C8.65266 8.78404 9.26084 9.38912 10.0094 9.38786C10.7579 9.38659 11.364 8.77944 11.364 8.03092C11.3612 7.2797 10.7507 6.67258 9.9995 6.67397H10.0001ZM6.14923 6.67395C5.66444 6.67138 5.21509 6.92762 4.97045 7.34617C4.72582 7.76472 4.72305 8.28199 4.96321 8.70312C5.20336 9.12426 5.64994 9.38529 6.13474 9.38788H7.51312V6.67395H6.14923ZM8.63498 2.84388V5.55843H9.99887C10.7284 5.56181 11.3303 4.98829 11.3621 4.25944V4.53361V4.20083C11.359 3.45049 10.7498 2.84388 9.9995 2.84388H8.63498ZM6.14797 2.84388C5.66318 2.84388 5.21521 3.10251 4.97282 3.52235C4.73042 3.9422 4.73042 4.45946 4.97282 4.8793C5.21521 5.29915 5.66318 5.55778 6.14797 5.55778H7.51312V2.84388H6.14797Z" fill="#516CF7"/>
</svg>
