<svg width="23" height="29" viewBox="0 0 23 29" fill="none" xmlns="http://www.w3.org/2000/svg">
<path d="M0.963989 0.464111V21.3828L11.711 28.5102L22.515 21.3828V0.464111H0.963989Z" fill="#2C39F2"/>
<path d="M17.941 16.4565C18.17 16.4565 18.399 16.4565 18.627 16.3405V18.6585C18.056 18.8322 17.312 19.0061 16.627 19.0061C15.37 19.0061 14.398 18.5425 13.883 17.6154C12.625 18.5425 11.196 19.122 9.30903 19.0641C6.96603 19.0641 4.90802 17.6734 4.96502 15.2395C5.02202 12.1104 7.99503 11.1833 10.51 11.1833C11.482 11.1833 12.625 11.3571 13.482 11.531V11.0674C13.482 9.85053 12.51 8.98134 10.51 8.98134C8.79503 8.98134 7.25203 9.38696 6.05103 9.85053V6.77936C7.08003 6.43169 9.02403 5.96811 10.91 6.02606C14.683 6.08401 17.084 7.59062 17.027 11.6469L16.969 15.5873C17.084 16.2826 17.484 16.4565 17.941 16.4565ZM8.16603 15.0658C8.16603 16.0509 9.08102 16.7461 10.339 16.7461C11.482 16.7461 12.51 16.4565 13.482 15.7031V13.617C12.853 13.4433 11.939 13.2694 11.139 13.2694C9.59503 13.2694 8.16603 13.7329 8.16603 15.0658Z" fill="white"/>
</svg>
