<svg width="90" height="90" viewBox="0 0 90 90" fill="none" xmlns="http://www.w3.org/2000/svg">
<g clip-path="url(#clip0_510_259)">
<path d="M0 0V89.6739H89.6739V0H0ZM73.7364 64.2388L44.837 81.4343L15.9375 64.2388V11.2689L44.8363 8.23924L45.1402 8.27087L73.7364 11.2689V64.2388Z" fill="black"/>
<path d="M69.8195 61.7504L44.837 76.6151L19.8545 61.7504V40.1579L44.7297 54.9639L44.7718 57.647L27.7063 47.4907L27.6816 50.0958L44.8142 60.3923L44.8566 63.1467L27.7295 52.9585L27.7047 55.5636L44.837 65.8598L62.1333 55.5104V52.8939L62.1121 52.9066V52.0125V50.939V44.3967L69.8195 39.7947V61.7504Z" fill="black"/>
<path d="M69.7823 36.9939L62.9478 41.0204L59.7923 42.8788L44.7456 33.9284L44.7208 36.5328L57.5814 44.1809L57.4679 44.248L57.1907 44.4114L55.3637 45.4878L44.7456 39.1712L44.7208 41.7766L53.1016 46.7599L51.1245 48.0828L51.0763 48.1118L44.7456 44.3821L44.7208 46.9872L48.8749 49.4335L44.6432 51.9743L19.8916 37.261L44.6788 22.3617V22.3643L69.7823 36.9939Z" fill="black"/>
<path d="M69.8195 34.3732L44.7023 19.5665V19.5629L44.6991 19.5649L44.6961 19.5629V19.5665L19.8545 34.3556V14.5937L44.8373 11.9746L69.8195 14.5937V34.3732Z" fill="black"/>
</g>
<defs>
<clipPath id="clip0_510_259">
<rect width="90" height="90" fill="white"/>
</clipPath>
</defs>
</svg>
