<svg width="32" height="32" viewBox="0 0 32 32" fill="none" xmlns="http://www.w3.org/2000/svg">
<path d="M29.472 14.753L17.247 2.52795C17.0797 2.36015 16.881 2.227 16.6622 2.13615C16.4434 2.0453 16.2089 1.99854 15.972 1.99854C15.7351 1.99854 15.5005 2.0453 15.2817 2.13615C15.0629 2.227 14.8642 2.36015 14.697 2.52795L12.158 5.06695L15.378 8.28695C15.7577 8.15774 16.166 8.13778 16.5565 8.22935C16.947 8.32093 17.304 8.52035 17.5866 8.8049C17.8693 9.08945 18.0664 9.44769 18.1554 9.83878C18.2444 10.2299 18.2217 10.6381 18.09 11.017L21.19 14.117C21.6533 13.9578 22.1573 13.9622 22.6178 14.1294C23.0783 14.2967 23.4676 14.6167 23.7208 15.0362C23.9741 15.4556 24.0759 15.9492 24.0094 16.4346C23.9429 16.92 23.712 17.368 23.3553 17.7039C22.9986 18.0398 22.5376 18.2433 22.0491 18.2805C21.5605 18.3177 21.074 18.1864 20.6705 17.9085C20.267 17.6305 19.971 17.2227 19.8317 16.753C19.6924 16.2832 19.7182 15.7799 19.905 15.327L17.01 12.432V20.049C17.4485 20.2662 17.7994 20.6272 18.0041 21.0717C18.2088 21.5163 18.2551 22.0175 18.1352 22.492C18.0152 22.9665 17.7364 23.3856 17.345 23.6795C16.9536 23.9734 16.4734 24.1243 15.9842 24.1071C15.4951 24.0899 15.0267 23.9056 14.6569 23.585C14.2871 23.2644 14.0383 22.8268 13.952 22.345C13.8657 21.8633 13.947 21.3665 14.1825 20.9374C14.4179 20.5084 14.7933 20.1729 15.246 19.987V12.3C14.9841 12.1925 14.746 12.0343 14.5455 11.8344C14.345 11.6346 14.186 11.397 14.0778 11.1354C13.9695 10.8739 13.914 10.5935 13.9145 10.3104C13.9151 10.0273 13.9717 9.7471 14.081 9.48595L10.911 6.31395L2.52797 14.7C2.36001 14.8672 2.22674 15.066 2.1358 15.2849C2.04486 15.5037 1.99805 15.7384 1.99805 15.9755C1.99805 16.2125 2.04486 16.4472 2.1358 16.6661C2.22674 16.8849 2.36001 17.0837 2.52797 17.251L14.753 29.472C14.9202 29.6398 15.1189 29.7729 15.3377 29.8638C15.5565 29.9546 15.7911 30.0014 16.028 30.0014C16.2649 30.0014 16.4994 29.9546 16.7182 29.8638C16.937 29.7729 17.1357 29.6398 17.303 29.472L29.472 17.3C29.6399 17.1327 29.7732 16.9339 29.8641 16.7151C29.9551 16.4962 30.0019 16.2615 30.0019 16.0245C30.0019 15.7874 29.9551 15.5527 29.8641 15.3339C29.7732 15.115 29.6399 14.9162 29.472 14.749" fill="#DD4C35"/>
<path d="M12.1579 5.06702L15.3779 8.28702C15.7576 8.1578 16.166 8.13784 16.5565 8.22941C16.947 8.32099 17.3039 8.52041 17.5866 8.80496C17.8692 9.08952 18.0663 9.44775 18.1553 9.83885C18.2443 10.2299 18.2216 10.6382 18.0899 11.017L21.1899 14.117C21.6533 13.9578 22.1572 13.9622 22.6177 14.1295C23.0782 14.2968 23.4675 14.6168 23.7208 15.0362C23.974 15.4557 24.0758 15.9492 24.0093 16.4347C23.9428 16.9201 23.712 17.368 23.3553 17.7039C22.9986 18.0398 22.5375 18.2433 22.049 18.2806C21.5604 18.3178 21.0739 18.1865 20.6704 17.9085C20.2669 17.6306 19.9709 17.2228 19.8316 16.753C19.6923 16.2833 19.7182 15.78 19.9049 15.327L17.0099 12.432V20.049C17.4484 20.2663 17.7993 20.6273 18.004 21.0718C18.2088 21.5163 18.255 22.0176 18.1351 22.4921C18.0152 22.9666 17.7363 23.3857 17.3449 23.6796C16.9535 23.9734 16.4733 24.1243 15.9842 24.1071C15.495 24.0899 15.0266 23.9057 14.6568 23.5851C14.287 23.2645 14.0383 22.8268 13.9519 22.3451C13.8656 21.8633 13.9469 21.3666 14.1824 20.9375C14.4178 20.5084 14.7932 20.173 15.2459 19.987V12.3C14.984 12.1926 14.7459 12.0343 14.5454 11.8345C14.3449 11.6346 14.186 11.3971 14.0777 11.1355C13.9694 10.8739 13.9139 10.5935 13.9145 10.3104C13.915 10.0273 13.9716 9.74716 14.0809 9.48602L10.9109 6.31402" fill="white"/>
</svg>
