<svg width="62" height="61" viewBox="0 0 62 61" fill="none" xmlns="http://www.w3.org/2000/svg">
<path d="M14.4255 44.53V36.1129C14.4668 33.8436 16.1089 29.2554 22.3475 29.0573C28.5861 28.8593 36.0047 28.9748 38.9342 29.0573C40.529 29.1712 43.495 27.6875 45.0606 24.1061V6.15779C44.0913 4.34233 40.7167 0.661896 34.9732 0.463846C29.2297 0.265796 24.8231 0.381325 23.3378 0.463846C21.1509 1.16527 16.7031 3.28606 16.406 6.15779C16.1089 9.02952 16.2822 12.4706 16.406 13.8322H30.7646V15.5652H9.84559C6.95735 15.8953 1.13138 18.5112 0.933328 26.3341C0.735278 34.1571 0.850807 35.2051 0.933328 34.7513C1.22215 37.5983 3.06236 43.5398 8.11264 44.53H14.4255Z" fill="#3970A2" stroke="black" stroke-width="0.371344"/>
<path d="M47.5362 16.0603V24.4774C47.4949 26.7467 45.8527 31.3349 39.6142 31.5329C33.3756 31.731 25.957 31.6155 23.0275 31.5329C21.4327 31.419 18.4667 32.9027 16.901 36.4842V54.4325C17.8704 56.2479 21.245 59.9284 26.9885 60.1264C32.7319 60.3245 37.1385 60.2089 38.6239 60.1264C40.8107 59.425 45.2586 57.3042 45.5557 54.4325C45.8527 51.5608 45.6795 48.1196 45.5557 46.758H31.197V45.0251H52.1161C55.0043 44.695 60.8303 42.0791 61.0283 34.2561C61.2264 26.4331 61.1109 25.3851 61.0283 25.839C60.7395 22.992 58.8993 17.0505 53.849 16.0603H47.5362Z" fill="#FED141" stroke="black" stroke-width="0.371344"/>
<circle cx="22.7188" cy="7.5193" r="2.84697" fill="white" stroke="black" stroke-width="0.742688"/>
<circle cx="38.8102" cy="52.5757" r="2.84697" fill="white" stroke="black" stroke-width="0.742688"/>
</svg>
