<svg width="21" height="21" viewBox="0 0 21 21" fill="none" xmlns="http://www.w3.org/2000/svg">
    <path d="M7.56808 17.2498C5.86876 17.2498 4.33675 16.2262 3.68634 14.6563C3.03593 13.0863 3.39519 11.2792 4.59661 10.0774L6.37983 8.2942L7.56808 9.48245L5.7857 11.2648C5.14877 11.9018 4.90002 12.8301 5.13315 13.7002C5.36628 14.5702 6.04588 15.2498 6.91595 15.483C7.78602 15.7161 8.71436 15.4674 9.3513 14.8304L11.1337 13.0481L12.3219 14.2371L10.5395 16.0195C9.75304 16.8099 8.6831 17.2529 7.56808 17.2498ZM8.1622 13.6422L6.97395 12.4539L12.9161 6.51182L14.1043 7.70008L8.16304 13.6413L8.1622 13.6422ZM14.6993 11.8598L13.5102 10.6715L15.2926 8.88917C15.9382 8.25414 16.1936 7.32164 15.9617 6.44626C15.7298 5.57088 15.0462 4.88714 14.1709 4.65503C13.2955 4.42292 12.363 4.67812 11.7278 5.32357L9.94458 7.10595L8.75633 5.9177L10.5395 4.13448C12.1825 2.50586 14.8329 2.51166 16.4687 4.14746C18.1045 5.78327 18.1103 8.43363 16.4817 10.0766L14.6993 11.859V11.8598Z" fill="currentColor"/>
</svg>