<svg width="21" height="22" viewBox="0 0 21 22" fill="none" xmlns="http://www.w3.org/2000/svg">
    <path d="M16.4191 17.6874C9.24953 17.6976 3.80829 12.1911 3.81596 5.08431C3.81596 4.6202 4.19219 4.24185 4.6563 4.24185H6.87428C7.29074 4.24185 7.64452 4.54785 7.70567 4.95979C7.85223 5.94708 8.13968 6.90825 8.55928 7.81392L8.64563 8.00031C8.76571 8.25948 8.68432 8.56741 8.45188 8.7334C7.76499 9.22393 7.50249 10.2113 8.0376 10.9817C8.70911 11.9485 9.55557 12.7948 10.5222 13.466C11.2925 14.001 12.2798 13.7385 12.7703 13.0518C12.9364 12.8192 13.2445 12.7378 13.5038 12.8579L13.6893 12.9438C14.5951 13.3634 15.5563 13.6509 16.5437 13.7974C16.9557 13.8585 17.2615 14.2123 17.2615 14.6288V16.8471C17.2615 17.3112 16.8844 17.6874 16.4202 17.6874L16.4191 17.6874Z" fill="currentColor"/>
</svg>