<svg width="21" height="21" viewBox="0 0 21 21" fill="none" xmlns="http://www.w3.org/2000/svg">
    <path d="M10.5387 17.7634C9.4773 16.8581 8.49347 15.8655 7.5975 14.7962C6.25294 13.1903 4.65628 10.7986 4.65628 8.51962C4.65509 6.13937 6.08844 3.99299 8.28748 3.08206C10.4865 2.17113 13.0178 2.6752 14.7001 4.35906C15.8064 5.46042 16.4261 6.95858 16.4212 8.51962C16.4212 10.7986 14.8245 13.1903 13.4799 14.7962C12.584 15.8655 11.6001 16.8581 10.5387 17.7634ZM10.5387 5.99858C9.63804 5.99858 8.80577 6.47908 8.35543 7.2591C7.90509 8.03911 7.90509 9.00013 8.35543 9.78014C8.80577 10.5602 9.63804 11.0407 10.5387 11.0407C11.9311 11.0407 13.0598 9.91195 13.0598 8.51962C13.0598 7.12728 11.9311 5.99858 10.5387 5.99858Z" fill="#79819A"/>
</svg>